<svg width="20" height="20" viewBox="0 0 20 20" fill="none" xmlns="http://www.w3.org/2000/svg">
<path fill-rule="evenodd" clip-rule="evenodd" d="M15.4167 3.125C15.0298 3.125 14.6588 3.27867 14.3853 3.55222L13.5772 4.36027L15.64 6.42306L16.4481 5.615C16.7216 5.34146 16.8753 4.97045 16.8753 4.58361C16.8753 4.19676 16.7216 3.82576 16.4481 3.55222C16.1745 3.27867 15.8035 3.125 15.4167 3.125ZM17.3319 6.49888C17.8399 5.99092 18.1253 5.30198 18.1253 4.58361C18.1253 3.86524 17.8399 3.1763 17.3319 2.66833C16.824 2.16037 16.135 1.875 15.4167 1.875C14.6983 1.875 14.0094 2.16037 13.5014 2.66833L12.2518 3.91794C12.2517 3.91807 12.2519 3.9178 12.2518 3.91794C12.2517 3.91807 12.2511 3.9186 12.251 3.91873L2.05806 14.1117C1.94085 14.2289 1.875 14.3878 1.875 14.5536V17.5303C1.875 17.8755 2.15482 18.1553 2.5 18.1553H5.41667C5.58243 18.1553 5.7414 18.0894 5.85861 17.9722L17.3319 6.49888ZM14.7561 7.30694L12.6933 5.24416L3.125 14.8125V16.9053H5.15778L14.7561 7.30694Z" fill="white"/>
</svg>
