<?xml version="1.0" encoding="UTF-8"?>
<svg xmlns="http://www.w3.org/2000/svg" xmlns:xlink="http://www.w3.org/1999/xlink" width="20px" height="20px" viewBox="0 0 20 20" version="1.1">
<g id="surface1">
<path style=" stroke:none;fill-rule:nonzero;fill:rgb(100%,100%,100%);fill-opacity:1;" d="M 8.75 2.8125 C 8.40625 2.8125 8.125 3.09375 8.125 3.4375 L 8.125 3.75 L 4.375 3.75 C 4.03125 3.75 3.75 4.03125 3.75 4.375 C 3.75 4.71875 4.03125 5 4.375 5 L 15.625 5 C 15.96875 5 16.25 4.71875 16.25 4.375 C 16.25 4.03125 15.96875 3.75 15.625 3.75 L 11.875 3.75 L 11.875 3.4375 C 11.875 3.09375 11.59375 2.8125 11.25 2.8125 Z M 4.6875 5.625 L 4.6875 14.375 C 4.6875 15.410156 5.527344 16.25 6.5625 16.25 L 13.4375 16.25 C 14.472656 16.25 15.3125 15.410156 15.3125 14.375 L 15.3125 5.625 Z M 7.03125 6.875 C 7.289062 6.875 7.5 7.085938 7.5 7.34375 L 7.5 13.90625 C 7.5 14.164062 7.289062 14.375 7.03125 14.375 C 6.773438 14.375 6.5625 14.164062 6.5625 13.90625 L 6.5625 7.34375 C 6.5625 7.085938 6.773438 6.875 7.03125 6.875 Z M 10 6.875 C 10.34375 6.875 10.625 7.15625 10.625 7.5 L 10.625 13.75 C 10.625 14.09375 10.34375 14.375 10 14.375 C 9.65625 14.375 9.375 14.09375 9.375 13.75 L 9.375 7.5 C 9.375 7.15625 9.65625 6.875 10 6.875 Z M 12.96875 6.875 C 13.226562 6.875 13.4375 7.085938 13.4375 7.34375 L 13.4375 13.90625 C 13.4375 14.164062 13.226562 14.375 12.96875 14.375 C 12.710938 14.375 12.5 14.164062 12.5 13.90625 L 12.5 7.34375 C 12.5 7.085938 12.710938 6.875 12.96875 6.875 Z M 12.96875 6.875 "/>
</g>
</svg>
